<svg width="16" height="17" viewBox="0 0 16 17" fill="none" xmlns="http://www.w3.org/2000/svg">
<g opacity="0.9">
<path fill-rule="evenodd" clip-rule="evenodd" d="M5.62175 6.83554C5.23991 7.04658 4.80081 7.16671 4.33366 7.16671C2.8609 7.16671 1.66699 5.9728 1.66699 4.50004C1.66699 3.02728 2.8609 1.83337 4.33366 1.83337C5.57622 1.83337 6.62029 2.68322 6.91631 3.83337H8.31215C8.59721 3.83337 8.82828 4.06901 8.82828 4.35969C8.82828 4.65037 8.59721 4.88601 8.31215 4.88601H5.32056L9.00033 9.17447L12.6801 4.88601H12.4412C12.1561 4.88601 11.9251 4.65037 11.9251 4.35969C11.9251 4.06901 12.1561 3.83337 12.4412 3.83337H13.8175C14.02 3.83337 14.2038 3.95415 14.2875 4.14221C14.3712 4.33027 14.3393 4.55085 14.2059 4.70627L9.50033 10.1903V13.9046L11.2213 14.1735C11.495 14.2163 11.688 14.4487 11.6652 14.7079C11.6423 14.9672 11.4111 15.1667 11.1336 15.1667H6.86701C6.58952 15.1667 6.35839 14.9672 6.3355 14.7079C6.31261 14.4487 6.50561 14.2163 6.77933 14.1735L8.50033 13.9046V10.1903L5.62175 6.83554ZM4.94767 6.04996C4.75766 6.1253 4.55049 6.16671 4.33366 6.16671C3.41318 6.16671 2.66699 5.42052 2.66699 4.50004C2.66699 3.57957 3.41318 2.83337 4.33366 2.83337C5.0171 2.83337 5.60446 3.24474 5.86164 3.83337H4.18313C3.98061 3.83337 3.79681 3.95415 3.71313 4.14221C3.62944 4.33027 3.66134 4.55085 3.7947 4.70627L4.94767 6.04996Z" fill="#00A296"/>
<path fill-rule="evenodd" clip-rule="evenodd" d="M10.6294 6.71704C11.0121 6.05422 11.0446 5.31572 10.7622 4.83565L12.1833 2.58346C12.3214 2.34431 12.2395 2.03852 12.0003 1.90045C11.7612 1.76238 11.4554 1.84431 11.3173 2.08346L9.90089 4.32825C9.33944 4.31494 8.7068 4.71374 8.32 5.38371C7.81374 6.26058 7.92031 7.2699 8.55803 7.63809C9.19576 8.00628 10.1231 7.59391 10.6294 6.71704ZM9.89082 5.32964C9.87178 5.32598 9.81694 5.32367 9.71269 5.37003C9.55091 5.44196 9.34496 5.60843 9.18603 5.88371C9.02709 6.15899 8.9859 6.42059 9.00449 6.59665C9.01647 6.71011 9.0459 6.75645 9.05859 6.7711C9.07762 6.77477 9.13247 6.77708 9.23672 6.73072C9.39849 6.65879 9.60444 6.49232 9.76338 6.21704C9.92231 5.94176 9.9635 5.68016 9.94491 5.5041C9.93293 5.39064 9.9035 5.3443 9.89082 5.32964Z" fill="#00A296"/>
</g>
</svg>
