<svg width="16" height="17" viewBox="0 0 16 17" fill="none" xmlns="http://www.w3.org/2000/svg">
<g opacity="0.9">
<path fill-rule="evenodd" clip-rule="evenodd" d="M11.4478 7.00724C12.0351 8.3793 11.7689 10.0295 10.649 11.1494C9.52916 12.2692 7.87893 12.5355 6.50688 11.9481C6.55985 12.8309 6.45888 14.0309 5.68748 14.7805C5.08617 15.3649 4.18135 15.2451 3.56263 14.6956C3.08025 14.7715 2.5672 14.6041 2.20389 14.2314C1.84061 13.8585 1.68702 13.3417 1.77611 12.8623C1.19398 12.2649 1.18588 11.2862 1.74916 10.7389C2.50123 10.0081 3.66396 9.92524 4.53933 9.9929C3.93983 8.61659 4.20296 6.95485 5.32872 5.82909C6.45449 4.70333 8.11622 4.4402 9.49253 5.03969C9.42488 4.16433 9.50773 3.00159 10.2386 2.24952C10.7858 1.68625 11.7646 1.69435 12.3619 2.27648C12.8414 2.18738 13.3582 2.34097 13.731 2.70425C14.1038 3.06756 14.2711 3.58061 14.1952 4.06299C14.7448 4.68172 14.8645 5.58654 14.2802 6.18785C13.5305 6.95924 12.3306 7.06022 11.4478 7.00724ZM9.35995 10.9561C9.22837 10.9024 9.08771 10.8356 8.94472 10.7528C8.31981 10.391 7.65234 9.71938 7.52145 8.54121C7.43068 7.72425 6.98976 7.28751 6.5617 7.03969C6.34221 6.91262 6.12582 6.83626 5.96351 6.79199C5.88301 6.77004 5.81767 6.75648 5.7744 6.74865L5.76867 6.74762C4.89784 7.85489 4.97287 9.46346 5.99376 10.4844C6.90563 11.3962 8.28638 11.5535 9.35995 10.9561ZM9.98398 6.49413C11.0049 7.51505 11.0799 9.1237 10.209 10.231L10.2032 10.2299C10.16 10.2221 10.0946 10.2086 10.0141 10.1866C9.85182 10.1423 9.63543 10.066 9.41595 9.9389C8.98788 9.69107 8.54696 9.25433 8.4562 8.43736C8.32531 7.25919 7.65783 6.58753 7.03292 6.22575C6.88991 6.14295 6.74923 6.07622 6.61764 6.02251C7.69123 5.425 9.07207 5.58221 9.98398 6.49413ZM13.6169 5.54165C12.8141 6.36781 11.0924 6.27245 10.649 5.82909C10.2057 5.38573 10.2828 3.533 10.9018 2.8959C11.1475 2.64316 11.6518 2.72371 11.8435 3.02701C11.9707 3.22833 12.2254 3.30761 12.4317 3.21006C12.6623 3.10093 12.9221 3.18048 13.1174 3.33576C13.3034 3.51697 13.3611 3.79093 13.2616 4.01873C13.1688 4.228 13.2558 4.48066 13.4602 4.60257C13.768 4.786 13.8625 5.28881 13.6169 5.54165ZM5.32872 11.1494C4.88537 10.706 3.03264 10.7831 2.39554 11.4022C2.14279 11.6479 2.22335 12.1522 2.52665 12.3438C2.72796 12.471 2.80724 12.7258 2.70969 12.9321C2.60056 13.1627 2.68011 13.4224 2.83539 13.6177C3.0166 13.8037 3.29056 13.8615 3.51836 13.7619C3.72763 13.6691 3.9803 13.7561 4.1022 13.9606C4.28564 14.2684 4.78844 14.3629 5.04129 14.1172C5.86745 13.3144 5.77208 11.5927 5.32872 11.1494Z" fill="#00A296"/>
</g>
</svg>
