<svg width="16" height="17" viewBox="0 0 16 17" fill="none" xmlns="http://www.w3.org/2000/svg">
<g opacity="0.9" clip-path="url(#clip0_2455_3585)">
<path fill-rule="evenodd" clip-rule="evenodd" d="M8.33854 4.14605C8.24751 4.05472 8.12394 4.00332 7.99505 4.00332C7.89259 4.00332 7.79351 4.03579 7.71145 4.09499C7.71145 4.09499 7.14803 4.65084 6.85163 5.35533C6.70341 5.7076 6.62728 6.05606 6.62634 6.39373V6.45159L6.57393 6.43033C6.02089 6.27195 5.55183 6.26951 5.52454 6.26951C5.25605 6.26951 5.03895 6.4878 5.03895 6.75636C5.03895 6.78893 5.04217 7.47899 5.32551 8.17881C5.34949 8.23803 5.37483 8.29574 5.4015 8.35191C5.2976 8.37958 5.20654 8.44065 5.14167 8.52356C5.0774 8.6057 5.03883 8.70928 5.03895 8.82306C5.03895 8.82306 5.039 8.83863 5.03945 8.85753C5.04316 9.00972 5.07381 9.62371 5.32554 10.2454L5.33228 10.2624C5.41653 10.4762 5.92869 11.7761 7.50948 11.7883L7.50941 12.5427L7.50955 12.5464C7.53304 13.1868 8.45693 13.1879 8.48067 12.5464V11.7883C10.0618 11.7761 10.574 10.4751 10.6579 10.2622L10.6645 10.2454C10.9475 9.54652 10.9511 8.85738 10.9511 8.82306C10.9514 8.59439 10.7954 8.40699 10.5886 8.35189C10.6152 8.29573 10.6406 8.23803 10.6645 8.17881C10.9479 7.47899 10.9511 6.78893 10.9511 6.75636C10.9511 6.4878 10.734 6.26951 10.4655 6.26951C10.4374 6.26951 9.93901 6.2721 9.36331 6.44587C9.37049 6.09196 9.29436 5.72575 9.13847 5.35533C8.84562 4.65943 8.36153 4.16912 8.33854 4.14605ZM8.38286 6.27256C8.41562 6.64216 8.31077 7.00263 7.99506 7.30747C7.6795 7.00272 7.57458 6.64238 7.60725 6.27283C7.6371 5.93522 7.78247 5.58721 7.99507 5.27038C8.20752 5.58702 8.35294 5.93496 8.38286 6.27256ZM6.59366 7.466C6.41718 7.39248 6.23755 7.34306 6.07653 7.30989C6.1096 7.4716 6.15891 7.65207 6.23225 7.82933C6.36352 8.14654 6.53531 8.37446 6.74697 8.52356C6.95304 8.66871 7.20439 8.74447 7.50935 8.748C7.50588 8.4417 7.43031 8.18926 7.28551 7.98235C7.13687 7.76995 6.90972 7.59764 6.59366 7.466ZM9.39645 7.46599C9.57291 7.39248 9.75256 7.34305 9.91358 7.30989C9.88052 7.4716 9.83121 7.65205 9.75786 7.82933C9.62659 8.14654 9.4548 8.37446 9.24313 8.52356C9.03708 8.66871 8.78573 8.74446 8.48079 8.748C8.48426 8.4417 8.55982 8.18926 8.70462 7.98236C8.85326 7.76996 9.08041 7.59765 9.39645 7.46599ZM9.39645 9.53253C9.57291 9.45901 9.75256 9.40959 9.91358 9.37643C9.88052 9.53813 9.83121 9.71859 9.75786 9.89587C9.62659 10.2131 9.4548 10.441 9.24313 10.5901C9.03708 10.7352 8.78573 10.811 8.48079 10.8145C8.48426 10.5082 8.55982 10.2558 8.70462 10.0489C8.85326 9.8365 9.08041 9.66419 9.39645 9.53253ZM6.22539 9.87907C6.15596 9.7076 6.10876 9.53331 6.07673 9.37646C6.2377 9.40962 6.41725 9.45904 6.59367 9.53254C6.90972 9.66418 7.13687 9.83648 7.28551 10.0489C7.43031 10.2558 7.50587 10.5082 7.50935 10.8145C7.20162 10.8109 6.9484 10.7339 6.74124 10.5861C6.52844 10.4343 6.35622 10.2022 6.22539 9.87907Z" fill="#00A296"/>
<path fill-rule="evenodd" clip-rule="evenodd" d="M7.97366 1.82996C11.6603 1.82996 14.6601 4.81946 14.6601 8.49496C14.6601 12.1705 11.6603 15.16 7.97359 15.16H7.96977C-0.884445 14.8251 -0.881889 2.16357 7.96986 1.83003L7.97366 1.82996ZM12.3385 4.83078C16.6891 10.2502 9.74693 17.1887 4.29749 12.8456L5.21792 11.9282C5.4082 11.7385 5.40821 11.4308 5.21791 11.2412C5.02781 11.0517 4.71975 11.0517 4.52964 11.2412L3.60648 12.1613C2.76719 11.1699 2.26081 9.89035 2.26081 8.49496L2.2608 8.49411C2.22068 3.67885 8.05725 1.04105 11.6529 4.14121L10.7293 5.06179C10.539 5.25145 10.539 5.5591 10.7293 5.74875C10.9194 5.93823 11.2275 5.93823 11.4176 5.74875L12.3385 4.83078Z" fill="#00A296"/>
</g>
<defs>
<clipPath id="clip0_2455_3585">
<rect width="16" height="16" fill="white" transform="translate(0 0.5)"/>
</clipPath>
</defs>
</svg>
