<svg width="24" height="24" viewBox="0 0 24 24" fill="none" xmlns="http://www.w3.org/2000/svg">
<g clip-path="url(#clip0_2455_2670)">
<path d="M5.26904 8.43176C5.0497 8.28144 4.83905 8.11885 4.63806 7.94476C4.28854 7.59746 4.07554 7.13606 4.03802 6.64477C3.97245 6.17511 4.04183 5.69649 4.23803 5.26476C4.38933 4.95041 4.61426 4.67719 4.89367 4.46829C5.17308 4.25938 5.49876 4.12097 5.84307 4.06477C6.05136 4.02223 6.26349 4.00144 6.47607 4.00276C9.8674 3.99876 13.2587 3.99876 16.6501 4.00276C17.2491 3.98749 17.8342 4.18362 18.303 4.55676C18.7035 4.88792 19.008 5.3202 19.1851 5.80876C19.3532 6.26785 19.4542 6.74882 19.485 7.23676C19.512 7.55876 19.5851 7.87777 19.6331 8.19877C19.7881 9.20677 19.9331 10.2148 19.9951 11.2338C19.9951 11.3138 19.9951 11.3948 19.9951 11.4748C19.9951 13.3018 19.988 15.1298 20.001 16.9568C20.0081 17.145 19.9748 17.3325 19.9036 17.5068C19.8324 17.6812 19.7249 17.8383 19.5881 17.9678C18.8984 18.6465 18.1384 19.2499 17.321 19.7678C17.0725 19.9252 16.7833 20.0066 16.4891 20.0018C13.1084 19.9964 9.72771 19.9964 6.34704 20.0018C5.79346 20.0179 5.25315 19.8308 4.82806 19.4758C4.38438 19.103 4.09851 18.5759 4.02807 18.0008C4.01055 17.8621 4.00286 17.7225 4.00506 17.5828C4.00506 16.1988 4.01406 14.8158 4.00006 13.4318C3.99741 12.7438 4.08756 12.0586 4.26806 11.3948C4.53603 10.4231 4.85545 9.46645 5.22503 8.52876L5.26904 8.43176ZM15.879 18.4478V18.2988C15.879 16.5308 15.879 14.7641 15.879 12.9988C15.879 12.9428 15.8791 12.8868 15.8871 12.8318C15.9446 12.2862 16.0658 11.7492 16.248 11.2318C16.7069 9.88449 17.2534 8.56869 17.884 7.29276C17.9133 7.24221 17.9269 7.18406 17.923 7.12576C17.8775 6.87582 17.8188 6.62848 17.7471 6.38476C17.678 6.13269 17.527 5.91073 17.318 5.75376C17.1495 5.63319 16.9507 5.56187 16.7439 5.54774C16.5371 5.53361 16.3304 5.57724 16.147 5.67376C16.0466 5.71174 15.958 5.77558 15.8903 5.85882C15.8225 5.94206 15.7779 6.04174 15.761 6.14776C15.7072 6.35319 15.7323 6.57136 15.8316 6.75912C15.9308 6.94688 16.097 7.09057 16.2971 7.16177C16.4552 7.22598 16.5873 7.34136 16.6721 7.48947C16.757 7.63758 16.7897 7.80986 16.7651 7.97877C16.7388 8.16965 16.6422 8.34385 16.4943 8.46723C16.3463 8.59062 16.1575 8.65429 15.965 8.64576H12.009C12.086 9.00776 12.1471 9.35177 12.2321 9.68977C12.2707 9.80915 12.2799 9.93611 12.2589 10.0598C12.2379 10.1835 12.1872 10.3003 12.1113 10.4002C12.0353 10.5002 11.9364 10.5802 11.8228 10.6336C11.7092 10.687 11.5844 10.7121 11.459 10.7068C10.617 10.7068 9.77541 10.7068 8.93408 10.7068C8.75529 10.7149 8.57946 10.6589 8.43829 10.5489C8.29711 10.4389 8.19986 10.2821 8.16406 10.1068C8.09006 9.79876 8.03206 9.48577 7.97406 9.17477C7.94206 9.00077 7.92508 8.82476 7.90008 8.64376C7.56108 8.64376 7.23008 8.64376 6.90008 8.64376C6.87308 8.64376 6.83605 8.68876 6.82305 8.72076C6.43815 9.65629 6.10433 10.612 5.82305 11.5838C5.66249 12.0937 5.57366 12.6234 5.55908 13.1578C5.56408 14.6248 5.55908 16.0928 5.55908 17.5578C5.55908 17.6238 5.55904 17.6908 5.56604 17.7578C5.58167 17.9442 5.6649 18.1184 5.80004 18.2478C5.88289 18.3207 5.97967 18.376 6.08453 18.4103C6.18938 18.4447 6.30011 18.4575 6.41003 18.4478H15.876H15.879ZM17.426 17.7758L17.456 17.7958C17.763 17.5278 18.069 17.2588 18.378 16.9958C18.4058 16.9727 18.4277 16.9433 18.4418 16.9101C18.4559 16.8769 18.4618 16.8407 18.459 16.8048C18.459 15.2428 18.459 13.6818 18.459 12.1208C18.459 11.6568 18.435 11.1928 18.413 10.7298C18.403 10.5198 18.3701 10.3118 18.3441 10.0718C18.3181 10.1208 18.3051 10.1408 18.2971 10.1618C18.0811 10.7538 17.8581 11.3448 17.6531 11.9408C17.4929 12.4181 17.416 12.9194 17.426 13.4228C17.44 14.8378 17.426 16.2528 17.426 17.6668C17.427 17.7008 17.4271 17.7388 17.4271 17.7768L17.426 17.7758ZM10.759 5.54676C10.489 5.54676 10.2311 5.54676 9.97308 5.54676C9.94606 5.54425 9.9189 5.55061 9.89581 5.56486C9.87272 5.57911 9.8549 5.60048 9.84503 5.62576C9.57598 6.1289 9.42488 6.68663 9.40307 7.25677C9.37942 7.86368 9.41995 8.47137 9.52404 9.06976C9.53604 9.13876 9.56004 9.16376 9.63104 9.16276C9.90304 9.16276 10.1751 9.16276 10.4471 9.16276C10.4756 9.16098 10.5039 9.15764 10.532 9.15276C10.2845 7.95232 10.3632 6.70746 10.7601 5.54777L10.759 5.54676ZM8.18603 5.54676H8.05908C7.52508 5.54676 6.99004 5.54676 6.45904 5.54676C6.3336 5.54745 6.2087 5.56323 6.08703 5.59376C5.91873 5.63202 5.76737 5.7237 5.65545 5.85508C5.54353 5.98647 5.47708 6.15052 5.46606 6.32276C5.4593 6.46634 5.49958 6.60819 5.58081 6.72677C5.66203 6.84535 5.77976 6.93419 5.91607 6.97976C6.07362 7.04335 6.24043 7.08085 6.41003 7.09077C6.85703 7.10577 7.30403 7.09576 7.75103 7.09576H7.86602C7.89763 6.56598 8.0058 6.04357 8.18707 5.54476L8.18603 5.54676ZM14.277 7.09376C14.2382 6.83896 14.2132 6.58226 14.202 6.32476C14.2149 6.06486 14.2417 5.80583 14.282 5.54876C14.288 5.54876 14.2821 5.54876 14.2681 5.54876C13.7031 5.54876 13.137 5.54876 12.568 5.54876C12.548 5.55159 12.5287 5.55856 12.5115 5.56924C12.4943 5.57991 12.4795 5.59405 12.4681 5.61076C12.2762 5.91111 12.1356 6.24128 12.0521 6.58776C12.0171 6.75276 11.994 6.91977 11.964 7.09277L14.277 7.09376Z" fill="#7B1FA2"/>
</g>
<defs>
<clipPath id="clip0_2455_2670">
<rect width="24" height="24" fill="white" transform="translate(0 -0.000244141)"/>
</clipPath>
</defs>
</svg>
