<svg width="24" height="24" viewBox="0 0 24 24" fill="none" xmlns="http://www.w3.org/2000/svg">
<g clip-path="url(#clip0_2455_2670)">
<path d="M16.1381 18.666C15.4008 18.3113 14.8172 17.7015 14.4954 16.9491C14.173 16.1961 14.135 15.3511 14.3885 14.5721C14.6409 13.7936 15.167 13.1332 15.8693 12.7132L15.5985 12.1876L15.3148 11.5498C15.2929 11.623 15.2665 11.6951 15.2358 11.765L15.2068 11.8187L15.1988 11.8358L15.1669 11.8987L15.046 12.1315C14.976 12.2674 14.7812 12.6312 14.7812 12.6312L13.3823 15.0298L13.3144 15.1298C13.0617 15.5843 12.6932 15.9637 12.2463 16.2293C11.7989 16.4956 11.289 16.6387 10.7685 16.6441H9.86122C9.69127 17.1267 9.41853 17.5667 9.06187 17.9335C8.70315 18.3001 8.2687 18.5839 7.78891 18.765C7.31112 18.9459 6.79969 19.0203 6.29014 18.9837V18.9837L10.0641 15.2089C10.0641 15.2179 10.0641 15.2258 10.0641 15.2328H10.7755C11.028 15.2399 11.2772 15.1737 11.4929 15.042C11.7577 14.8574 11.9807 14.6188 12.1473 14.3422C12.3562 14.0294 12.569 13.6876 12.7688 13.3428H11.9195L15.9392 9.3201L17.0443 11.9358L17.1922 12.2477C17.3327 12.23 17.4742 12.2209 17.6159 12.2213C18.4344 12.221 19.2253 12.518 19.842 13.0563C20.4589 13.5966 20.859 14.3419 20.9681 15.1547C21.0786 15.9655 20.8908 16.7892 20.4395 17.4718C19.9894 18.1558 19.3063 18.6529 18.5171 18.8709C18.2242 18.9518 17.9217 18.9928 17.6179 18.9929C17.1062 18.9972 16.6003 18.8853 16.1381 18.666V18.666ZM17.6039 13.6819C17.2217 13.6821 16.848 13.7948 16.5297 14.0064C16.2122 14.2199 15.9647 14.5225 15.8183 14.8761C15.6722 15.2295 15.6339 15.6185 15.7084 15.9936C15.7822 16.3693 15.9662 16.7142 16.237 16.9848C16.5078 17.2554 16.8527 17.4399 17.2282 17.5147C17.6033 17.5888 17.992 17.5499 18.3453 17.4035C18.6988 17.2572 19.0013 17.0097 19.2146 16.692C19.4265 16.373 19.5395 15.9984 19.5393 15.6154C19.5391 15.3617 19.4892 15.1106 19.3924 14.8761C19.2952 14.6412 19.153 14.4277 18.9737 14.2475C18.794 14.0677 18.5804 13.9254 18.3453 13.8288C18.114 13.7331 17.8662 13.6835 17.6159 13.6829L17.6039 13.6819ZM3.73324 18.9998C3.54 18.9959 3.35582 18.9169 3.21966 18.7797C3.14968 18.7094 3.09431 18.626 3.05675 18.5342C3.01919 18.4424 3.00019 18.3445 3.00084 18.2453C3.00174 18.0484 3.08039 17.8599 3.21966 17.7207L3.56637 17.3737C3.32746 17.0021 3.16069 16.5885 3.07479 16.1552C2.97492 15.6521 2.98583 15.1334 3.10676 14.635C3.22697 14.1368 3.4544 13.6712 3.7732 13.27C3.53867 13.1574 3.34111 12.98 3.20368 12.7591C3.06665 12.5372 2.9972 12.2805 3.00383 12.0198C2.96468 11.4167 3.16587 10.8224 3.56338 10.3674C3.95961 9.91245 4.51951 9.6328 5.1211 9.58899H7.94279C8.20888 9.59181 8.47163 9.64858 8.71515 9.75589C8.95811 9.8634 9.17695 10.0188 9.35862 10.2127C9.63286 10.059 9.91503 9.91986 10.2039 9.79591C10.646 9.63483 11.0967 9.49818 11.5538 9.38696L13.5232 7.41833H11.2361C11.1432 7.4186 11.0512 7.40034 10.9654 7.36465C10.8796 7.32895 10.8018 7.27654 10.7365 7.21044C10.6706 7.14504 10.6184 7.06687 10.5829 6.98107C10.5473 6.89528 10.5293 6.80357 10.5297 6.71072C10.5293 6.61786 10.5473 6.52567 10.5829 6.43987C10.6184 6.35407 10.6706 6.27639 10.7365 6.21099C10.8022 6.14552 10.8801 6.09357 10.9658 6.05825C11.0515 6.02292 11.1434 6.00485 11.2361 6.00505H14.0598C14.1896 6.00318 14.3173 6.03791 14.4285 6.1051C14.51 6.15522 14.5804 6.22138 14.6353 6.29981L15.7144 5.22034C15.7837 5.1506 15.8661 5.09524 15.9567 5.05734C16.0474 5.01944 16.1447 5.00005 16.243 4.99976C16.3416 4.99984 16.4392 5.01944 16.5303 5.05734C16.6213 5.09524 16.704 5.15041 16.7735 5.22034C16.9055 5.35105 16.9836 5.52671 16.9924 5.71225C16.9975 5.81706 16.9808 5.92176 16.9431 6.01969C16.9054 6.11763 16.8476 6.20649 16.7735 6.28078L4.28379 18.7738C4.21443 18.8437 4.13192 18.8991 4.04102 18.9368C3.95012 18.9745 3.85264 18.9941 3.75422 18.9939L3.73324 18.9998ZM5.72261 13.514C5.33601 13.6751 5.00573 13.9468 4.77339 14.2953C4.54042 14.6434 4.41593 15.0531 4.41568 15.4719C4.4158 15.7711 4.47949 16.0665 4.60253 16.3391L7.40024 13.5409C7.25463 13.4754 7.10213 13.4264 6.94561 13.395C6.80872 13.3678 6.66951 13.354 6.52995 13.354C6.25294 13.3537 5.97861 13.4082 5.72261 13.514V13.514ZM4.44265 11.786H8.62723C8.5413 11.4052 8.24654 10.9862 7.94878 10.9862H5.1221C4.82335 10.9852 4.52958 11.4042 4.44265 11.786V11.786ZM17.3491 10.6675C17.1947 10.6675 17.0417 10.6369 16.8991 10.5777C16.7565 10.5185 16.6269 10.4318 16.5178 10.3225C16.4084 10.2132 16.3217 10.0837 16.2625 9.94085C16.2034 9.79799 16.173 9.64455 16.173 9.48993C16.1731 9.33546 16.2035 9.18266 16.2627 9.03998C16.3218 8.8973 16.4085 8.76751 16.5178 8.65836C16.7382 8.43772 17.0372 8.31396 17.3491 8.31382C17.489 8.30919 17.6275 8.34391 17.7487 8.41387C17.8573 8.48014 17.9406 8.58037 17.9856 8.69935C18.025 8.80545 18.0476 8.91713 18.0525 9.03022C18.0585 9.13716 18.0585 9.25408 18.0585 9.36402V9.61193C18.0585 9.72387 18.0585 9.83976 18.0525 9.9467C18.0477 10.0601 18.0251 10.1721 17.9856 10.2785C17.9401 10.3975 17.8569 10.4984 17.7487 10.5655C17.6348 10.6313 17.5056 10.6658 17.3741 10.6655L17.3491 10.6675Z" fill="#7B1FA2"/>
</g>
<defs>
<clipPath id="clip0_2455_2670">
<rect width="24" height="24" fill="white" transform="translate(0 -0.000244141)"/>
</clipPath>
</defs>
</svg>
