<svg width="24" height="24" viewBox="0 0 24 24" fill="none" xmlns="http://www.w3.org/2000/svg">
<g clip-path="url(#clip0_2455_2670)">
<path fill-rule="evenodd" clip-rule="evenodd" d="M13.3178 15.1287L13.3848 15.0287L14.7868 12.6267C14.7868 12.6267 14.9828 12.2617 15.0528 12.1267L15.1728 11.8927L15.2048 11.8297L15.2128 11.8137L15.2408 11.7587C15.2719 11.6889 15.2983 11.6171 15.3198 11.5437L15.6048 12.1817L15.8748 12.7087C15.1717 13.1292 14.6449 13.7903 14.392 14.5695C14.1391 15.3488 14.1773 16.1932 14.4995 16.9464C14.8217 17.6996 15.4061 18.3105 16.1442 18.6658C16.8824 19.021 17.7244 19.0966 18.514 18.8785C19.3037 18.6605 19.9875 18.1635 20.4388 17.4797C20.89 16.7959 21.078 15.9718 20.968 15.16C20.8579 14.3482 20.4573 13.6038 19.8404 13.0648C19.2234 12.5258 18.432 12.2288 17.6128 12.2287C17.4714 12.2287 17.3301 12.2374 17.1898 12.2547L17.0418 11.9437L14.7238 6.45773C14.7148 6.43473 14.6938 6.38873 14.6938 6.38873C14.635 6.27211 14.5449 6.17409 14.4337 6.10559C14.3225 6.03709 14.1944 6.00079 14.0638 6.00073H11.2388C11.0515 6.00073 10.872 6.07511 10.7396 6.20752C10.6072 6.33992 10.5328 6.51949 10.5328 6.70673C10.5328 6.89398 10.6072 7.07355 10.7396 7.20595C10.872 7.33835 11.0515 7.41273 11.2388 7.41273H13.6058L14.1428 8.90573C13.6498 8.97973 13.0028 9.08673 12.3498 9.21673C11.6197 9.34546 10.9023 9.53786 10.2058 9.79173C9.91686 9.91588 9.63479 10.0554 9.36079 10.2097C9.17894 10.0152 8.95951 9.85959 8.71577 9.75233C8.47204 9.64507 8.20907 9.5884 7.94279 9.58573H5.11879C4.51639 9.6301 3.95585 9.91046 3.55905 10.3659C3.16225 10.8213 2.96126 11.4149 2.99979 12.0177C2.99293 12.2783 3.06197 12.5353 3.1985 12.7574C3.33502 12.9795 3.53316 13.1572 3.76879 13.2687C3.44954 13.6702 3.22161 14.1365 3.10084 14.635C2.98007 15.1335 2.96937 15.6524 3.06949 16.1555C3.1696 16.6586 3.37812 17.1338 3.68054 17.5481C3.98297 17.9624 4.37203 18.3059 4.82066 18.5546C5.26929 18.8033 5.76672 18.9512 6.27834 18.9882C6.78996 19.0251 7.30349 18.9501 7.78319 18.7684C8.26289 18.5868 8.69725 18.3027 9.05604 17.9362C9.41484 17.5696 9.68945 17.1292 9.86079 16.6457H10.7678C11.2891 16.6412 11.7998 16.4984 12.2478 16.2318C12.6958 15.9653 13.065 15.5847 13.3178 15.1287ZM9.35379 13.3517C9.76544 13.8979 10.0087 14.5523 10.0538 15.2347L10.7668 15.2377C11.0196 15.2453 11.2691 15.1789 11.4848 15.0467C11.7506 14.8625 11.9742 14.6239 12.1408 14.3467C12.3498 14.0337 12.5618 13.6917 12.7618 13.3517H9.35379ZM14.0268 10.3137C14.0338 10.3777 14.0408 10.4547 14.0408 10.5427C14.0613 10.7584 14.0308 10.976 13.9518 11.1777C13.9232 11.2345 13.8897 11.2887 13.8518 11.3397C13.7146 11.5287 13.5339 11.6819 13.3251 11.7863C13.1162 11.8907 12.8853 11.9434 12.6518 11.9397H10.0628V11.3727L10.2628 11.2657C10.4498 11.1677 10.6768 11.0547 10.8568 10.9807C11.728 10.6023 12.6587 10.3793 13.6068 10.3217C13.7648 10.3137 13.9138 10.3137 14.0268 10.3137ZM7.94679 10.9827C8.24579 10.9827 8.53979 11.4017 8.62679 11.7827H4.43879C4.52579 11.4037 4.81879 10.9827 5.11879 10.9827H7.94679ZM7.70804 17.2316C7.35957 17.4645 6.94989 17.5887 6.53079 17.5887C5.96879 17.5887 5.42982 17.3655 5.03243 16.9681C4.63504 16.5707 4.41179 16.0317 4.41179 15.4697C4.41179 15.0506 4.53607 14.6409 4.7689 14.2925C5.00174 13.944 5.33269 13.6724 5.71988 13.512C6.10708 13.3516 6.53314 13.3097 6.94418 13.3914C7.35523 13.4732 7.7328 13.675 8.02915 13.9714C8.32549 14.2677 8.52731 14.6453 8.60907 15.0563C8.69083 15.4674 8.64887 15.8934 8.48849 16.2806C8.32811 16.6678 8.05651 16.9988 7.70804 17.2316ZM19.2215 16.6893C19.4342 16.3709 19.5478 15.9966 19.5478 15.6137C19.5479 15.3595 19.4979 15.1076 19.4007 14.8727C19.3034 14.6378 19.1608 14.4243 18.981 14.2445C18.8012 14.0647 18.5878 13.9221 18.3528 13.8248C18.1179 13.7276 17.8661 13.6776 17.6118 13.6777C17.2289 13.6777 16.8546 13.7913 16.5362 14.004C16.2178 14.2167 15.9697 14.5191 15.8232 14.8729C15.6766 15.2266 15.6383 15.6159 15.713 15.9914C15.7877 16.367 15.9721 16.7119 16.2428 16.9827C16.5136 17.2534 16.8585 17.4378 17.2341 17.5125C17.6096 17.5872 17.9989 17.5489 18.3527 17.4024C18.7064 17.2558 19.0088 17.0077 19.2215 16.6893Z" fill="#7B1FA2"/>
<path d="M18.0648 9.48073C18.0648 9.46675 18.0649 9.45289 18.065 9.43934C18.0653 9.41315 18.0655 9.38814 18.0648 9.36573V9.36073C18.0648 9.34832 18.0648 9.33586 18.0648 9.32337C18.0649 9.22313 18.065 9.12087 18.0588 9.02573C18.054 8.91265 18.0317 8.80101 17.9928 8.69473C17.9477 8.57547 17.8644 8.47453 17.7558 8.40773C17.6343 8.33798 17.4958 8.30335 17.3558 8.30773C17.0436 8.30773 16.7443 8.43173 16.5235 8.65246C16.3028 8.87319 16.1788 9.17257 16.1788 9.48473C16.1788 9.79689 16.3028 10.0963 16.5235 10.317C16.7443 10.5377 17.0436 10.6617 17.3558 10.6617C17.4958 10.6662 17.6343 10.6315 17.7558 10.5617C17.8644 10.4949 17.9477 10.394 17.9928 10.2747C18.0317 10.1684 18.054 10.0568 18.0588 9.94373C18.0648 9.83673 18.0648 9.71973 18.0648 9.60873V9.48073Z" fill="#7B1FA2"/>
</g>
<defs>
<clipPath id="clip0_2455_2670">
<rect width="24" height="24" fill="white" transform="translate(0 -0.000244141)"/>
</clipPath>
</defs>
</svg>
